<?xml version="1.0" encoding="utf-8"?><svg id="Layer_1" data-name="Layer 1" xmlns="http://www.w3.org/2000/svg" xmlns:xlink="http://www.w3.org/1999/xlink" width="552" height="407.26" viewBox="0 0 552 407.26"><defs><style>.cls-1,.cls-18,.cls-21,.cls-41,.cls-42,.cls-56{fill:#263d5d;}.cls-1{opacity:0.26;}.cls-2{fill:url(#Unbenannter_Verlauf_134);}.cls-3{fill:#f9acac;}.cls-4{fill:#f40000;}.cls-5{fill:#870404;}.cls-6{fill:url(#Unbenannter_Verlauf_134-2);}.cls-7{fill:#b4f7ad;}.cls-8{fill:#00f206;}.cls-9{fill:#098406;}.cls-10{fill:url(#Unbenannter_Verlauf_134-3);}.cls-11{fill:#068fed;}.cls-12{fill:#97bef7;}.cls-13{fill:#0d3acc;}.cls-14{fill:#ffd7b3;}.cls-15{fill:#70ddf0;}.cls-16{opacity:0.63;fill:url(#linear-gradient);}.cls-17,.cls-32{fill:#f6f7f8;}.cls-18{opacity:0.4;}.cls-19{fill:#95a0b0;}.cls-20{fill:#dfe2e7;}.cls-22,.cls-41{opacity:0.2;}.cls-23{fill:url(#Unbenannter_Verlauf_90);}.cls-24,.cls-28{opacity:0.9;}.cls-25{fill:url(#Unbenannter_Verlauf_90-2);}.cls-26,.cls-40{fill:#28cce8;}.cls-26{fill-rule:evenodd;}.cls-27{opacity:0.16;fill:url(#Neues_Verlaufsfeld_3);}.cls-28{fill:url(#linear-gradient-2);}.cls-29,.cls-30,.cls-33{fill:none;stroke-width:3.64px;}.cls-29{stroke:#f6f7f8;opacity:0.5;}.cls-29,.cls-30,.cls-33,.cls-40{stroke-miterlimit:10;}.cls-30{stroke:url(#Unbenannter_Verlauf_68);}.cls-31{opacity:0.6;}.cls-32{opacity:0.8;}.cls-33{stroke:url(#Unbenannter_Verlauf_68-2);}.cls-34{fill:url(#Verlauf_Visual_Icontiefe_2);}.cls-35{fill:url(#Verlauf_Visual_Icontiefe_2-2);}.cls-36{fill:url(#Verlauf_Visual_Icontiefe_2-3);}.cls-37{fill:url(#Verlauf_Visual_Icontiefe_2-4);}.cls-38{fill:url(#Verlauf_Visual_Icontiefe_2-5);}.cls-39{fill:url(#Verlauf_Visual_Icontiefe_2-6);}.cls-40{stroke:#70ddf0;stroke-width:0.95px;}.cls-42{opacity:0.19;}.cls-43{fill:#a0a0a0;}.cls-44{fill:#fff;}.cls-45{fill:#f07b09;}.cls-46{fill:#c4a81a;}.cls-47{fill:#f9d716;}.cls-48{fill:#508423;}.cls-49{fill:#68b42e;}.cls-50{fill:#c1c1c1;}.cls-51{fill:#f8f8f8;}.cls-52{fill:#6d6d6c;}.cls-53{fill:#a9a4a1;}.cls-54{fill:#5e0000;}.cls-55{fill:#f5abac;}.cls-56{opacity:0.1;}</style><linearGradient id="Unbenannter_Verlauf_134" x1="91.47" y1="447.58" x2="188.01" y2="281.93" gradientUnits="userSpaceOnUse"><stop offset="0" stop-color="#001b41"/><stop offset="0" stop-color="#031d43"/><stop offset="0.04" stop-color="#304665"/><stop offset="0.09" stop-color="#596b83"/><stop offset="0.14" stop-color="#7f8c9f"/><stop offset="0.19" stop-color="#9faab8"/><stop offset="0.25" stop-color="#bbc2cc"/><stop offset="0.32" stop-color="#d1d6dc"/><stop offset="0.39" stop-color="#e2e5e9"/><stop offset="0.49" stop-color="#edeff2"/><stop offset="0.62" stop-color="#f4f5f7"/><stop offset="1" stop-color="#f6f7f8"/></linearGradient><linearGradient id="Unbenannter_Verlauf_134-2" x1="265.46" y1="449.89" x2="362" y2="284.24" xlink:href="#Unbenannter_Verlauf_134"/><linearGradient id="Unbenannter_Verlauf_134-3" x1="206.71" y1="431.78" x2="303.25" y2="266.13" xlink:href="#Unbenannter_Verlauf_134"/><linearGradient id="linear-gradient" x1="208.35" y1="300.47" x2="346.69" y2="223.12" gradientUnits="userSpaceOnUse"><stop offset="0.45" stop-color="#9ca6b5"/><stop offset="0.77" stop-color="#95a0b0"/><stop offset="0.82" stop-color="#98a3b2"/></linearGradient><linearGradient id="Unbenannter_Verlauf_90" x1="340.56" y1="-613.45" x2="375.28" y2="-673.59" gradientTransform="matrix(1, -1.15, 0, 1, 0.88, 1154.05)" gradientUnits="userSpaceOnUse"><stop offset="0.04" stop-color="#001b41" stop-opacity="0.4"/><stop offset="0.1" stop-color="#001b41" stop-opacity="0.44"/><stop offset="0.62" stop-color="#001b41" stop-opacity="0.71"/><stop offset="1" stop-color="#001b41" stop-opacity="0.8"/></linearGradient><linearGradient id="Unbenannter_Verlauf_90-2" x1="347.64" y1="-601.34" x2="382.37" y2="-661.48" xlink:href="#Unbenannter_Verlauf_90"/><linearGradient id="Neues_Verlaufsfeld_3" x1="2831.42" y1="235.4" x2="2882.09" y2="147.65" gradientTransform="matrix(-1, 0, 0, 1, 3245.55, 0)" gradientUnits="userSpaceOnUse"><stop offset="0" stop-color="#4a6dc9"/><stop offset="1" stop-color="#001b41"/></linearGradient><linearGradient id="linear-gradient-2" x1="2894.07" y1="163.13" x2="2775.66" y2="245.58" gradientTransform="matrix(-1, 0, 0, 1, 3245.55, 0)" gradientUnits="userSpaceOnUse"><stop offset="0" stop-color="#3e4dda"/><stop offset="1" stop-color="#091471"/></linearGradient><linearGradient id="Unbenannter_Verlauf_68" x1="2789.04" y1="141.09" x2="2809.64" y2="141.09" gradientTransform="matrix(-1, 0, 0, 1, 3245.55, 0)" gradientUnits="userSpaceOnUse"><stop offset="0" stop-color="#11c7e6"/><stop offset="1" stop-color="#3c9ddb" stop-opacity="0.5"/></linearGradient><linearGradient id="Unbenannter_Verlauf_68-2" x1="2789.04" y1="181.06" x2="2809.64" y2="181.06" xlink:href="#Unbenannter_Verlauf_68"/><linearGradient id="Verlauf_Visual_Icontiefe_2" x1="2458.77" y1="-203.04" x2="2458.77" y2="-142.48" gradientTransform="matrix(0.87, -0.5, 0, 1.15, -1787.76, 1660.65)" gradientUnits="userSpaceOnUse"><stop offset="0" stop-color="#e7f9fc" stop-opacity="0"/><stop offset="1" stop-color="#28cce8" stop-opacity="0.5"/></linearGradient><linearGradient id="Verlauf_Visual_Icontiefe_2-2" x1="2475.94" y1="-180.8" x2="2475.94" y2="-142.48" xlink:href="#Verlauf_Visual_Icontiefe_2"/><linearGradient id="Verlauf_Visual_Icontiefe_2-3" x1="2509.96" y1="-173.18" x2="2509.96" y2="-142.48" xlink:href="#Verlauf_Visual_Icontiefe_2"/><linearGradient id="Verlauf_Visual_Icontiefe_2-4" x1="2492.94" y1="-219.71" x2="2492.94" y2="-142.48" xlink:href="#Verlauf_Visual_Icontiefe_2"/><linearGradient id="Verlauf_Visual_Icontiefe_2-5" x1="2544.53" y1="-206.58" x2="2544.53" y2="-142.48" xlink:href="#Verlauf_Visual_Icontiefe_2"/><linearGradient id="Verlauf_Visual_Icontiefe_2-6" x1="2527.51" y1="-189.4" x2="2527.51" y2="-142.48" xlink:href="#Verlauf_Visual_Icontiefe_2"/></defs><path class="cls-1" d="M121.69,402.91l11.5-6.64-11.5-6.64-11.5,6.64Z"/><polygon class="cls-2" points="121.69 389.94 131.69 395.71 121.69 401.49 111.7 395.71 121.69 389.94"/><polygon class="cls-3" points="121.69 378.4 131.69 384.17 121.69 389.94 111.7 384.17 121.69 378.4"/><polygon class="cls-4" points="111.7 384.17 111.7 395.71 121.69 401.49 121.69 389.94 111.7 384.17"/><polygon class="cls-5" points="131.69 384.17 131.69 395.71 121.69 401.49 121.69 389.94 131.69 384.17"/><path class="cls-1" d="M295.69,405.22l11.5-6.64-11.5-6.64-11.5,6.64Z"/><polygon class="cls-6" points="295.69 392.25 305.69 398.02 295.69 403.79 285.7 398.02 295.69 392.25"/><polygon class="cls-7" points="295.69 380.71 305.69 386.48 295.69 392.25 285.7 386.48 295.69 380.71"/><polygon class="cls-8" points="285.7 386.48 285.7 398.02 295.69 403.79 295.69 392.25 285.7 386.48"/><polygon class="cls-9" points="305.69 386.48 305.69 398.02 295.69 403.79 295.69 392.25 305.69 386.48"/><path class="cls-1" d="M237,387.46l11.5-6.64L237,374.18l-11.5,6.64Z"/><polygon class="cls-10" points="236.93 374.15 246.93 379.92 236.93 385.69 226.94 379.92 236.93 374.15"/><polygon class="cls-11" points="236.93 362.61 246.93 368.38 236.93 374.15 226.94 368.38 236.93 362.61"/><polygon class="cls-12" points="226.94 368.38 226.94 379.92 236.93 385.69 236.93 374.15 226.94 368.38"/><polygon class="cls-13" points="246.93 368.38 246.93 379.92 236.93 385.69 236.93 374.15 246.93 368.38"/><ellipse class="cls-14" cx="90.83" cy="175.33" rx="4.43" ry="2.56" transform="translate(-106.42 166.32) rotate(-60)"/><ellipse class="cls-15" cx="82.67" cy="179.78" rx="4.43" ry="2.56" transform="translate(-114.36 161.48) rotate(-60)"/><ellipse class="cls-15" cx="90.83" cy="117.9" rx="4.43" ry="2.56" transform="translate(-56.69 137.61) rotate(-60)"/><ellipse class="cls-15" cx="82.67" cy="122.35" rx="4.43" ry="2.56" transform="translate(-64.63 132.77) rotate(-60)"/><polygon class="cls-16" points="185.39 382.59 305.39 313.31 185.39 244.03 65.39 313.31 185.39 382.59"/><polygon class="cls-17" points="185.39 329.06 305.39 259.79 185.39 190.5 65.39 259.78 185.39 329.06"/><polygon class="cls-18" points="185.39 322.13 299.39 256.32 185.39 190.51 71.39 256.32 185.39 322.13"/><polygon class="cls-19" points="185.39 370.63 305.39 301.36 305.39 259.79 185.39 329.06 185.39 370.63"/><polygon class="cls-20" points="185.39 370.63 65.39 301.36 65.39 259.79 185.39 329.06 185.39 370.63"/><path class="cls-21" d="M198.43,348.18l61.46-35.49c2.68-1.55,4.88-5.75,4.88-9.33h0c0-3.58-2.2-5.24-4.88-3.69l-61.46,35.49c-2.69,1.55-4.88,5.74-4.88,9.32h0C193.55,348.07,195.74,349.73,198.43,348.18Z"/><polygon class="cls-17" points="185.39 273.46 305.39 204.19 185.39 134.91 65.39 204.18 185.39 273.46"/><polygon class="cls-18" points="185.39 266.53 299.39 200.72 185.39 134.91 71.39 200.72 185.39 266.53"/><polygon class="cls-19" points="185.39 315.03 305.39 245.76 305.39 204.19 185.39 273.46 185.39 315.03"/><polygon class="cls-20" points="185.39 315.03 65.39 245.76 65.39 204.19 185.39 273.46 185.39 315.03"/><path class="cls-21" d="M198.43,292.58l61.46-35.49c2.68-1.55,4.88-5.74,4.88-9.33h0c0-3.58-2.2-5.24-4.88-3.69l-61.46,35.49c-2.69,1.55-4.88,5.75-4.88,9.33h0C193.55,292.47,195.74,294.13,198.43,292.58Z"/><polygon class="cls-17" points="185.39 218.04 305.39 148.76 185.39 79.49 65.39 148.76 185.39 218.04"/><polygon class="cls-19" points="185.39 259.61 305.39 190.34 305.39 148.77 185.39 218.04 185.39 259.61"/><polygon class="cls-20" points="185.39 259.61 65.39 190.34 65.39 148.77 185.39 218.04 185.39 259.61"/><path class="cls-21" d="M198.43,237.16l61.46-35.49c2.68-1.55,4.88-5.74,4.88-9.33h0c0-3.58-2.2-5.24-4.88-3.69l-61.46,35.49c-2.69,1.55-4.88,5.75-4.88,9.33h0C193.55,237.05,195.74,238.71,198.43,237.16Z"/><path class="cls-19" d="M176.86,247h0c.79.45,1.43,0,1.43-1.07V225.48a3.39,3.39,0,0,0-1.43-2.71h0c-.78-.46-1.42,0-1.42,1.07V244.3A3.41,3.41,0,0,0,176.86,247Z"/><path class="cls-19" d="M171,244.34h0c.78.45,1.42,0,1.42-1.07V222.81a3.45,3.45,0,0,0-1.42-2.72h0c-.78-.45-1.42,0-1.42,1.08v20.45A3.41,3.41,0,0,0,171,244.34Z"/><path class="cls-19" d="M165,240.88h0c.78.45,1.42,0,1.42-1.08V219.35a3.41,3.41,0,0,0-1.42-2.72h0c-.79-.45-1.43,0-1.43,1.08v20.45A3.41,3.41,0,0,0,165,240.88Z"/><path class="cls-19" d="M176.86,302.6h0c.79.46,1.43,0,1.43-1.07V281.07a3.39,3.39,0,0,0-1.43-2.71h0c-.78-.45-1.42,0-1.42,1.07v20.46A3.41,3.41,0,0,0,176.86,302.6Z"/><path class="cls-19" d="M171,299.93h0c.78.45,1.42,0,1.42-1.07V278.4a3.41,3.41,0,0,0-1.42-2.71h0c-.78-.46-1.42,0-1.42,1.07v20.46A3.41,3.41,0,0,0,171,299.93Z"/><path class="cls-19" d="M165,296.47h0c.78.45,1.42,0,1.42-1.08V274.94a3.43,3.43,0,0,0-1.42-2.72h0c-.79-.45-1.43,0-1.43,1.08v20.45A3.4,3.4,0,0,0,165,296.47Z"/><path class="cls-19" d="M176.86,358.2h0c.79.45,1.43,0,1.43-1.08V336.67a3.4,3.4,0,0,0-1.43-2.72h0c-.78-.45-1.42,0-1.42,1.07v20.46A3.45,3.45,0,0,0,176.86,358.2Z"/><path class="cls-19" d="M171,355.52h0c.78.46,1.42,0,1.42-1.07V334a3.41,3.41,0,0,0-1.42-2.71h0c-.78-.45-1.42,0-1.42,1.07v20.46A3.41,3.41,0,0,0,171,355.52Z"/><path class="cls-19" d="M165,352.06h0c.78.45,1.42,0,1.42-1.07V330.53a3.45,3.45,0,0,0-1.42-2.72h0c-.79-.45-1.43,0-1.43,1.08v20.45A3.4,3.4,0,0,0,165,352.06Z"/><ellipse class="cls-14" cx="289.61" cy="289.56" rx="4.43" ry="2.56" transform="translate(-105.96 395.58) rotate(-60)"/><ellipse class="cls-15" cx="281.45" cy="294.01" rx="4.43" ry="2.56" transform="translate(-113.9 390.74) rotate(-60)"/><ellipse class="cls-15" cx="289.61" cy="232.13" rx="4.43" ry="2.56" transform="matrix(0.5, -0.87, 0.87, 0.5, -56.23, 366.87)"/><ellipse class="cls-15" cx="281.45" cy="236.58" rx="4.43" ry="2.56" transform="translate(-64.16 362.03) rotate(-60)"/><ellipse class="cls-15" cx="289.61" cy="180.71" rx="4.43" ry="2.56" transform="translate(-11.69 341.16) rotate(-60)"/><ellipse class="cls-14" cx="281.45" cy="185.16" rx="4.43" ry="2.56" transform="translate(-19.63 336.32) rotate(-60)"/><polygon class="cls-18" points="185.39 211.11 299.39 145.3 185.39 79.49 71.39 145.3 185.39 211.11"/><polygon class="cls-17" points="185.39 162.62 305.39 93.34 185.39 24.06 65.39 93.34 185.39 162.62"/><polygon class="cls-19" points="185.39 204.19 305.39 134.91 305.39 93.35 185.39 162.62 185.39 204.19"/><polygon class="cls-20" points="185.39 204.19 65.39 134.91 65.39 93.34 185.39 162.62 185.39 204.19"/><path class="cls-21" d="M198.43,181.74l61.46-35.49c2.68-1.55,4.88-5.75,4.88-9.33h0c0-3.58-2.2-5.24-4.88-3.69l-61.46,35.48c-2.69,1.55-4.88,5.75-4.88,9.33h0C193.55,181.62,195.74,183.29,198.43,181.74Z"/><path class="cls-19" d="M176.86,191.59h0c.79.45,1.43,0,1.43-1.07V170.06a3.43,3.43,0,0,0-1.43-2.72h0c-.78-.45-1.42,0-1.42,1.08v20.45A3.41,3.41,0,0,0,176.86,191.59Z"/><path class="cls-19" d="M171,188.92h0c.78.45,1.42,0,1.42-1.08V167.39a3.43,3.43,0,0,0-1.42-2.72h0c-.78-.45-1.42,0-1.42,1.08V186.2A3.43,3.43,0,0,0,171,188.92Z"/><path class="cls-19" d="M165,185.46h0c.78.45,1.42,0,1.42-1.08V163.93a3.41,3.41,0,0,0-1.42-2.72h0c-.79-.45-1.43,0-1.43,1.07v20.46A3.43,3.43,0,0,0,165,185.46Z"/><ellipse class="cls-15" cx="289.61" cy="125.28" rx="4.43" ry="2.56" transform="translate(36.3 313.45) rotate(-60)"/><ellipse class="cls-14" cx="281.45" cy="129.74" rx="4.43" ry="2.56" transform="translate(28.37 308.61) rotate(-60)"/><g class="cls-22"><path class="cls-23" d="M404.47,107a7.68,7.68,0,0,1-3.46,6l-84.43,48.64c-1.9,1.1-3.46.19-3.46-2V87.53a7.7,7.7,0,0,1,3.46-6L401,32.9c1.9-1.1,3.46-.2,3.46,2Z"/></g><g class="cls-24"><path class="cls-25" d="M411.56,110.9a7.68,7.68,0,0,1-3.46,6l-84.43,48.64c-1.91,1.1-3.47.19-3.47-2V91.45a7.68,7.68,0,0,1,3.47-6L408.1,36.82c1.9-1.1,3.46-.2,3.46,2Z"/></g><path class="cls-17" d="M360.83,113.18,353,111.34l.24-1.93,9.67-12.83-.38,3.11L355.28,109l5.94,1.06Z"/><path class="cls-17" d="M372,88.3l-7.73,26.17-2,1.14,7.74-26.17Z"/><path class="cls-17" d="M371.89,103.88,379,95.26l-5.86-1.72.39-3.12,7.75,2.77-.24,1.93L371.5,107Z"/><ellipse class="cls-17" cx="412.02" cy="35.15" rx="15.69" ry="9.06" transform="translate(175.57 374.4) rotate(-60)"/><path class="cls-26" d="M410.16,25.26c-6.09,3.51-11.05,12.1-11.05,19.13s5,9.88,11.05,6.37,11-12.11,11-19.12S416.24,21.75,410.16,25.26ZM416.87,30l-8.52,14.74c-.35.62-.94,1-1.29.75l-3.61-2.08c-.86-.5.44-2.74,1.3-2.25l3,1.71,7.86-13.62C416.43,27.75,417.72,28.49,416.87,30Z"/><path class="cls-27" d="M460,96.23V207.49a2.48,2.48,0,0,1-1.32,2.2L319.6,286.15A2.49,2.49,0,0,1,316,284V178.74a2.5,2.5,0,0,1,1.25-2.16L456.26,94.07A2.49,2.49,0,0,1,460,96.23Z"/><path class="cls-28" d="M466,99.21V209.93a2.5,2.5,0,0,1-1.32,2.2L325.31,288.2a2.48,2.48,0,0,1-3.65-2.2V181.45a2.51,2.51,0,0,1,1.25-2.16L462.23,97.05A2.49,2.49,0,0,1,466,99.21Z"/><ellipse class="cls-29" cx="446.24" cy="144.96" rx="11.99" ry="6.92" transform="translate(97.58 458.94) rotate(-60)"/><path class="cls-30" d="M437.73,149.92c0-5.41,3.79-12,8.48-14.69s8.48-.51,8.48,4.9"/><g class="cls-31"><path class="cls-32" d="M441.9,164.37a.41.41,0,0,0,.19,0,1.31,1.31,0,0,0,.58-.7.54.54,0,0,1,.27-.34.49.49,0,0,1,.42-.06,1.29,1.29,0,0,0,.9-.16,1.2,1.2,0,0,0,.57-.69.57.57,0,0,1,.27-.34.51.51,0,0,1,.43-.06,1.32,1.32,0,0,0,.89-.16,1.24,1.24,0,0,0,.58-.7.64.64,0,0,1,.27-.34.59.59,0,0,1,.43-.06,1.3,1.3,0,0,0,1.47-.85.57.57,0,0,1,.27-.34.59.59,0,0,1,.43-.06,1.24,1.24,0,0,0,.89-.15,1.27,1.27,0,0,0,.58-.7.57.57,0,0,1,.27-.34.56.56,0,0,1,.43-.07,1.3,1.3,0,0,0,1.48-.85.57.57,0,0,1,.27-.34.37.37,0,1,0-.37-.64,1.24,1.24,0,0,0-.58.7.6.6,0,0,1-.27.34.59.59,0,0,1-.43.06,1.29,1.29,0,0,0-.9.16,1.27,1.27,0,0,0-.58.69.58.58,0,0,1-.7.41,1.25,1.25,0,0,0-.89.15,1.27,1.27,0,0,0-.58.7.54.54,0,0,1-.27.34.59.59,0,0,1-.43.06,1.24,1.24,0,0,0-.89.15,1.27,1.27,0,0,0-.58.7.58.58,0,0,1-.7.4,1.33,1.33,0,0,0-1.47.85.56.56,0,0,1-.26.34.55.55,0,0,1-.43.06,1.29,1.29,0,0,0-.89.15,1.27,1.27,0,0,0-.58.7.57.57,0,0,1-.27.34.38.38,0,0,0-.14.51A.37.37,0,0,0,441.9,164.37Z"/><path class="cls-32" d="M448.3,163.74a.3.3,0,0,0,.16-.05.77.77,0,0,0,.35-.41l.06-.07a.88.88,0,0,0,.59-.09.82.82,0,0,0,.35-.42l.05-.07a.85.85,0,0,0,.6-.09.79.79,0,0,0,.35-.42l.06-.07a.83.83,0,0,0,.59-.09.82.82,0,0,0,.35-.41l.05-.07a.9.9,0,0,0,.6-.09.87.87,0,0,0,.35-.42l-.15-.38.19.32h.07a.79.79,0,0,0,.89-.51.42.42,0,0,0,.16-.54.35.35,0,0,0-.48-.17.85.85,0,0,0-.36.42l0,.07H453a.77.77,0,0,0-.54.09.82.82,0,0,0-.35.42l.14.39-.18-.33a1,1,0,0,0-.61.1.85.85,0,0,0-.36.42l-.05.07a.87.87,0,0,0-.59.09.75.75,0,0,0-.35.42l-.06.07a.82.82,0,0,0-.59.09.72.72,0,0,0-.35.41l-.06.07a.93.93,0,0,0-.59.09.78.78,0,0,0-.35.42.4.4,0,0,0,.17.75Z"/></g><g class="cls-31"><path class="cls-32" d="M441.9,204.47a.41.41,0,0,0,.19-.05,1.31,1.31,0,0,0,.58-.7.54.54,0,0,1,.27-.34.52.52,0,0,1,.42-.06,1.33,1.33,0,0,0,.9-.15,1.24,1.24,0,0,0,.57-.7.57.57,0,0,1,.27-.34.51.51,0,0,1,.43-.06,1.32,1.32,0,0,0,.89-.16,1.22,1.22,0,0,0,.58-.69.62.62,0,0,1,.27-.35.54.54,0,0,1,.43-.05,1.32,1.32,0,0,0,.89-.16,1.24,1.24,0,0,0,.58-.7.6.6,0,0,1,.27-.34.59.59,0,0,1,.43-.06,1.24,1.24,0,0,0,.89-.15,1.27,1.27,0,0,0,.58-.7.57.57,0,0,1,.27-.34.55.55,0,0,1,.43-.06,1.34,1.34,0,0,0,.9-.16,1.24,1.24,0,0,0,.58-.7.57.57,0,0,1,.27-.34.37.37,0,0,0,.14-.51.38.38,0,0,0-.51-.13,1.27,1.27,0,0,0-.58.7.57.57,0,0,1-.27.34.55.55,0,0,1-.43.06,1.34,1.34,0,0,0-.9.16,1.3,1.3,0,0,0-.58.69.58.58,0,0,1-.7.41,1.25,1.25,0,0,0-.89.15,1.27,1.27,0,0,0-.58.7.54.54,0,0,1-.27.34.55.55,0,0,1-.43.06,1.3,1.3,0,0,0-.89.15,1.27,1.27,0,0,0-.58.7.54.54,0,0,1-.27.34.5.5,0,0,1-.43.06,1.32,1.32,0,0,0-.89.16,1.3,1.3,0,0,0-.58.69.61.61,0,0,1-.26.35.55.55,0,0,1-.43.05,1.31,1.31,0,0,0-.89.16,1.22,1.22,0,0,0-.58.69.62.62,0,0,1-.27.35.36.36,0,0,0-.14.5A.38.38,0,0,0,441.9,204.47Z"/><path class="cls-32" d="M448.3,203.83a.3.3,0,0,0,.16-.05.77.77,0,0,0,.35-.41l.06-.07a.88.88,0,0,0,.59-.09.78.78,0,0,0,.35-.42l.05-.07a.85.85,0,0,0,.6-.09.79.79,0,0,0,.35-.42l.06-.07a.82.82,0,0,0,.59-.08.87.87,0,0,0,.35-.42l.05-.07a.9.9,0,0,0,.6-.09.83.83,0,0,0,.35-.42l-.15-.38.19.32h.07a.77.77,0,0,0,.54-.09.74.74,0,0,0,.35-.42.42.42,0,0,0,.16-.54.35.35,0,0,0-.48-.17.85.85,0,0,0-.36.42l0,.07H453a.79.79,0,0,0-.54.1.77.77,0,0,0-.35.41l.14.39-.18-.32a.91.91,0,0,0-.61.09.85.85,0,0,0-.36.42l-.05.07a.87.87,0,0,0-.59.09.78.78,0,0,0-.35.42l-.06.07a.82.82,0,0,0-.59.09.71.71,0,0,0-.35.42l-.06.07a.86.86,0,0,0-.59.08.82.82,0,0,0-.35.42.4.4,0,0,0,.17.75Z"/></g><ellipse class="cls-29" cx="446.24" cy="184.93" rx="11.99" ry="6.92" transform="translate(62.97 478.92) rotate(-60)"/><path class="cls-33" d="M437.73,189.89c0-5.41,3.79-12,8.48-14.69s8.48-.51,8.48,4.9"/><polygon class="cls-34" points="345.77 264.33 337.43 269.15 337.43 199.22 345.77 194.4 345.77 264.33"/><polygon class="cls-35" points="360.79 255.66 352.14 260.65 352.14 216.41 360.79 211.41 360.79 255.66"/><polygon class="cls-36" points="390.25 238.65 381.6 243.64 381.6 208.19 390.25 203.2 390.25 238.65"/><polygon class="cls-37" points="375.51 247.16 366.86 252.15 366.86 162.97 375.51 157.98 375.51 247.16"/><polygon class="cls-17" points="347.1 268.31 337.4 273.91 337.4 272.53 347.1 266.94 347.1 268.31"/><polygon class="cls-17" points="361.73 259.87 352.03 265.46 352.03 264.09 361.73 258.49 361.73 259.87"/><polygon class="cls-17" points="376.69 251.22 367 256.82 367 255.44 376.69 249.85 376.69 251.22"/><polygon class="cls-17" points="391.32 242.78 381.63 248.37 381.63 247 391.32 241.4 391.32 242.78"/><polygon class="cls-38" points="420.19 221.36 411.54 226.36 411.54 152.34 420.19 147.34 420.19 221.36"/><polygon class="cls-39" points="405.45 229.87 396.8 234.87 396.8 180.69 405.45 175.69 405.45 229.87"/><polygon class="cls-17" points="406.63 233.94 396.94 239.53 396.94 238.16 406.63 232.56 406.63 233.94"/><polygon class="cls-17" points="421.26 225.49 411.57 231.09 411.57 229.71 421.26 224.12 421.26 225.49"/><path class="cls-40" d="M393.78,219.86l-11.88,2L371,210.92l-11.78,12.75h-.17l-21.84,4.91c-.18,0-.23-.23-.12-.48s.35-.47.53-.46l21.67-4.92,12-13,11.13,11.12L393.7,219l11.68-15.81,14.55-48.08c.11-.26.35-.46.53-.45s.22.24.11.5l-14.63,48.27Z"/><path class="cls-41" d="M326.27,299.46l-9.89-5.72a1.8,1.8,0,0,1,0-3.13l144-78.69a1.82,1.82,0,0,1,1.78,0l9.89,5.72a1.79,1.79,0,0,1,0,3.12l-144,78.7A1.82,1.82,0,0,1,326.27,299.46Z"/><path class="cls-42" d="M530.31,401.19l7.27-5.42a2.44,2.44,0,0,0,0-4.24l-77.86-43.42a2.44,2.44,0,0,0-2.4,0L450,353.56a2.44,2.44,0,0,0,0,4.24l77.86,43.41A2.42,2.42,0,0,0,530.31,401.19Z"/><path class="cls-43" d="M532,390.86c6.95-5.14,11.16-14.71,11.13-27.87-.06-27.4-18.83-61.09-42.5-76.18-10.4-6.63-20.08-8.76-27.94-7-3.72,1-9.1,2.67-13.77,6.17-5.45,4.08.34,13.34.34,23.12,0,13.09,4.21,27.47,11.14,40.6a9,9,0,0,0,3.22,3.53l50.82,40.85C525.64,394.78,531.15,391.46,532,390.86Zm-27.83-84c10.46,6,18.94,20.73,18.94,32.81s-8.48,17-18.94,10.94-18.95-20.73-18.95-32.81S493.66,300.85,504.13,306.89Z"/><path class="cls-44" d="M525.9,393.67c7-5.14,11.16-14.71,11.13-27.87-.06-27.4-18.83-61.09-42.5-76.18-25.89-16.51-47.31-5.09-47.31,24.47,0,13.09,4.21,27.47,11.14,40.6a9,9,0,0,0,3.22,3.53l61.09,35.27A2.93,2.93,0,0,0,525.9,393.67Zm-33.77-81.78c10.46,6,18.94,20.73,18.94,32.81s-8.48,17-18.94,10.94-18.95-20.73-18.95-32.81S481.66,305.85,492.13,311.89Z"/><path class="cls-45" d="M537.21,366c0-28-19.19-61.85-43.2-76.76l-1.48-.89a2.07,2.07,0,0,0-.25-.15l-.07-.05-.08,0-.25-.14c-.49-.28-1-.55-1.48-.81-24-12.81-43.19-1.1-43.19,26.88,0,11.46,3.22,23.9,8.66,35.63l36.32-9.88,36.35,51.83C534,386.22,537.21,377.5,537.21,366Z"/><path class="cls-46" d="M534.54,388.66c5.44-5.44,8.67-14.16,8.67-25.62,0-28-19.19-61.85-43.2-76.76l-1.48-.89a2.07,2.07,0,0,0-.25-.15l-.07-.05-.08,0-.25-.14c-.49-.28-1-.55-1.48-.81C487.33,279.36,479,278,472,279.75c-2.6.65-11.43,4.54-13.15,6.22l39.31,50.86Z"/><path class="cls-47" d="M528.54,391.66c5.44-5.44,8.67-14.16,8.67-25.62,0-28-19.19-61.85-43.2-76.76l-1.48-.89a2.07,2.07,0,0,0-.25-.15l-.07-.05-.08,0-.25-.14c-.49-.28-1-.55-1.48-.81-12.49-6.66-23.66-6.68-31.52-1.23l33.31,53.86Z"/><path class="cls-48" d="M531.52,321.42l-33.33,15.41,30.35,54.83,6-3c5.44-5.44,8.67-14.16,8.67-25.62C543.21,349.61,538.77,334.82,531.52,321.42Z"/><path class="cls-49" d="M525.52,324.42l-33.33,15.41,36.35,51.83c5.44-5.44,8.67-14.16,8.67-25.62C537.21,352.61,532.77,337.82,525.52,324.42Z"/><path class="cls-50" d="M512.82,350.14a19.66,19.66,0,0,1-2.41,9.91c-.3.51-2.27,3.24-7,4a28,28,0,0,1-9.58-3c-10.46-6-18.94-20.73-18.94-32.81,0-2.66-.63-7.28.71-8.85a18.58,18.58,0,0,1,5.41-3.71c3.37-1.64,7.88-1.23,12.82,1.62C504.34,323.37,512.82,338.06,512.82,350.14Z"/><ellipse class="cls-51" cx="492.13" cy="340.02" rx="15.47" ry="26.79" transform="translate(-104.08 291.62) rotate(-30)"/><ellipse class="cls-51" cx="492.12" cy="340" rx="1.77" ry="3.06" transform="translate(-104.07 291.62) rotate(-30)"/><path class="cls-52" d="M496.47,350.12c3.22.93,21.37,7.74,29,9.92.13,0,.45,0,1.57-.79.43-.35.85-.79.35-1.22-6.12-5.32-27.24-23.61-30.85-26.73a12,12,0,0,0-1.4-1.06c-2.3-1.48-4.65-2.1-6.5-1.53a11.78,11.78,0,0,0-3.82,2.23c-.61.66.86,2.49.86,3.51a15.31,15.31,0,0,0,2.15,7.86,18.65,18.65,0,0,0,7.68,7.45A6.88,6.88,0,0,0,496.47,350.12Z"/><path class="cls-53" d="M494.47,351.12c3.49,1,24.76,7.15,30.9,8.9.5.14.5-.56,0-1-6.12-5.32-27.24-23.61-30.85-26.73a12,12,0,0,0-1.4-1.06c-2.65-1.7-5.37-2.27-7.31-1.18-1.63.91-2.15,3.07-2.15,5.39a15.31,15.31,0,0,0,2.15,7.86,18.65,18.65,0,0,0,7.68,7.45A6.88,6.88,0,0,0,494.47,351.12Z"/><ellipse class="cls-51" cx="492.12" cy="340" rx="1.77" ry="3.06" transform="translate(-104.07 291.62) rotate(-30)"/><path class="cls-52" d="M491.71,340.1a3.48,3.48,0,0,1-.4-2.87,1.13,1.13,0,0,0-.66.09c-.87.43-.93,2-.12,3.46s2.18,2.34,3.06,1.91a1.18,1.18,0,0,0,.53-.59A3.63,3.63,0,0,1,491.71,340.1Z"/><path class="cls-21" d="M476,357.34c0,1.06-.27,1.73-.81,2a2.6,2.6,0,0,1-2.32-.47l-.63-.36v3.16L470,360.38v-9.54l2.86,1.65a6.75,6.75,0,0,1,2.35,2.15A5,5,0,0,1,476,357.34Zm-3.76-.93.41.23a.86.86,0,0,0,.8.14c.19-.11.29-.35.29-.73a1.65,1.65,0,0,0-.92-1.5l-.58-.34Z"/><path class="cls-21" d="M485,364.29c0,1.6-.34,2.62-1,3.07s-1.68.28-3-.48a7.82,7.82,0,0,1-3-3,8.62,8.62,0,0,1-1-4.27c0-1.59.34-2.6,1-3s1.68-.28,3,.47a7.69,7.69,0,0,1,3,3A8.59,8.59,0,0,1,485,364.29ZM479.32,361c0,1.85.55,3.09,1.66,3.73q.86.5,1.26.06a2.91,2.91,0,0,0,.41-1.86,5.86,5.86,0,0,0-.41-2.35,3,3,0,0,0-1.24-1.4C479.88,358.53,479.32,359.14,479.32,361Z"/><path class="cls-21" d="M495.42,375.08l-2.64-1.52L492,369q-.06-.3-.18-1.14t-.18-1.41c0,.27-.08.59-.14,1s-.14.73-.21,1.05-.34,1.58-.82,3.8l-2.64-1.52-2-10.72,2.15,1.24.9,5.3c.2,1.18.34,2.1.42,2.77.05-.42.13-1,.26-1.66s.24-1.25.35-1.69l.73-3.18,2.07,1.19.71,4c.12.64.24,1.38.36,2.21s.21,1.44.25,1.84c0-.45.19-1.21.4-2.28l.92-4.27,2.15,1.25Z"/><path class="cls-21" d="M503.43,379.71l-4.91-2.83v-9.55l4.91,2.84v2.06l-2.68-1.54v1.5l2.48,1.43v2.07l-2.48-1.43v1.8l2.68,1.55Z"/><path class="cls-21" d="M507.11,378.36v3.47l-2.24-1.29V371l2.71,1.56q3.38,1.95,3.37,4.77c0,1.1-.47,1.69-1.4,1.75l2.41,5.55-2.54-1.46-1.75-4.48Zm0-1.94.42.24c.78.45,1.17.28,1.17-.52a1.92,1.92,0,0,0-1.15-1.64l-.44-.26Z"/><polygon class="cls-54" points="47.25 371.62 47.23 379.84 54.76 375.65 47.25 371.62"/><polygon class="cls-54" points="27.25 359.78 27.2 368.37 34.73 364.18 27.25 359.78"/><polygon class="cls-54" points="20.95 364.69 20.91 372.12 27.54 368.4 20.95 364.69"/><polygon class="cls-54" points="33.66 371.96 33.62 379.55 40.26 375.83 33.66 371.96"/><polygon class="cls-54" points="33.65 355.52 33.62 363.74 41.69 360.08 33.65 355.52"/><polygon class="cls-54" points="53.44 367.7 53.41 376.57 61.36 372.02 53.44 367.7"/><polygon class="cls-3" points="27.31 358.71 28.43 352.17 20.91 356.36 21.01 357.23 14.58 361.04 21.13 365.01 27.27 360.89 27.28 360.03 33.59 363.75 33.59 356.27 27.23 352.6 27.31 358.71"/><polygon class="cls-3" points="66.54 398.54 72.9 393.92 72.9 386.45 66.54 382.78 66.54 398.54"/><polygon class="cls-3" points="67 375.67 61.36 371.07 60.05 371.73 60.1 387.39 66.55 391.1 67 375.67"/><polygon class="cls-3" points="39.94 359.94 38.79 360.69 33.59 363.75 33.61 364.77 27.2 368.37 37.77 374.52 39.95 367.42 53.57 375.29 53.57 367.81 39.94 359.94"/><polygon class="cls-3" points="53.78 391.15 60.1 386.53 60.09 371.76 53.78 375.31 53.78 391.15"/><path class="cls-3" d="M66.85,353.39v-7.31l-6.76-3.93v-7.48l-6.68-3.86v-7.34L40.12,315.8l-6.68,3.48h0l-6.9,3.49h0l-6.13,3.43-6.65,3.95,6.35,11.17,13.53,7.81,0,6.78L40,359.58l0-6.78,13.61,7.86,0,7.32,6.25,3.63L67,375.67l6.32-3.76V357.12Zm-26.89-8-6.36-3.67v-7.47L40,337.89Zm20,11.53-6.36-3.67.06-7,6.91,3.62Z"/><polygon class="cls-4" points="20.91 364.69 14.58 361.04 14.58 368.51 20.93 372.18 20.93 364.71 27.27 368.36 27.27 360.03 20.91 356.36 20.91 364.69"/><polygon class="cls-4" points="60.22 394.87 66.58 398.54 66.58 391.06 60.22 387.39 60.22 394.87"/><polygon class="cls-4" points="60.23 379.04 53.78 375.31 53.78 383.67 60.23 387.4 60.23 379.04"/><polygon class="cls-4" points="33.62 363.75 33.62 372.03 27.27 368.36 27.27 375.84 33.63 379.51 33.63 372.03 47.25 379.9 47.25 371.62 33.62 363.75"/><polygon class="cls-4" points="47.25 387.38 53.78 391.15 53.78 383.67 47.25 379.9 47.25 387.38"/><path class="cls-4" d="M60.54,357.16v-7.31l-6.77-3.94v-7.47l-6.68-3.86v-7.34L33.8,319.56v7.34l-6.68-3.85v7.47l-6.9-4v7.35l-6.46-3.73v14.79l13.52,7.8V360l6.36,3.67v-7.29l13.61,7.87v7.28l6.55,3.78v-7.29L67,375.67V360.89Zm-26.9-8-6.36-3.67V338l6.36,3.67Zm20,11.53L47.25,357v-7.48l6.36,3.67Z"/><polygon class="cls-54" points="60.25 379 60.25 387.51 66.95 383.02 67 375.67 60.25 379"/><polygon class="cls-54" points="66.67 391.03 66.67 398.5 72.9 393.92 73.01 386.47 66.67 391.03"/><polygon class="cls-54" points="67.02 360.91 67.02 375.68 73.32 371.91 73.37 357.17 67.02 360.91"/><polygon class="cls-54" points="60.6 349.8 60.6 357.08 66.9 353.31 66.95 346.05 60.6 349.8"/><polygon class="cls-54" points="53.83 338.5 53.83 345.79 60.12 342.02 60.17 334.76 53.83 338.5"/><polygon class="cls-54" points="47.11 327.21 47.11 334.5 53.41 330.72 53.46 323.47 47.11 327.21"/><polygon class="cls-55" points="47.23 379.86 53.78 383.67 53.78 376.2 47.23 379.86"/><polygon class="cls-54" points="53.78 383.67 53.83 391.13 60.22 387.39 53.78 383.67"/><polygon class="cls-54" points="47.14 349.5 47.18 356.96 53.57 353.22 47.14 349.5"/><polygon class="cls-54" points="27.34 338.09 27.38 345.55 33.6 341.69 27.34 338.09"/><path class="cls-56" d="M68.08,402.33,78,396.61a1.8,1.8,0,0,0,0-3.13l-57.5-32.06a1.79,1.79,0,0,0-1.78,0l-9.89,5.71a1.8,1.8,0,0,0,0,3.13L66.3,402.34A1.82,1.82,0,0,0,68.08,402.33Z"/></svg>